<?xml version="1.0" encoding="UTF-8"?>
<svg xmlns="http://www.w3.org/2000/svg" version="1.1" viewBox="0 0 595.28 442.63">
  <defs>
    <style>
      .cls-1 {
        fill: #fff;
      }
    </style>
  </defs>
  <!-- Generator: Adobe Illustrator 28.7.3, SVG Export Plug-In . SVG Version: 1.2.0 Build 164)  -->
  <g>
    <g id="Capa_1">
      <path d="M554,385.42c-2.87,3.97-6.69,5.11-11.59,5.11-96.28-.12-192.56-.09-288.84-.09-.83,0-1.67.02-2.5,0-5.9-.16-9.27-3.18-9.17-8.21.1-4.78,3.44-7.73,9.05-7.8,6.13-.07,12.27-.02,18.72-.02v-55.98c-1.61,0-3.06,0-4.51,0-31.65.04-63.3.13-94.95.06-3.39,0-5.09.69-6.31,4.31-5.47,16.25-17.09,25.27-34.04,27.48-1.12.15-2.26.2-3.6.31v23.81c1.74,0,3.49,0,5.24,0,20.32,0,40.64-.02,60.97.02,6,.01,9.91,3.5,9.45,8.45-.38,4.14-2.84,6.66-6.91,7.42-1.45.27-2.99.14-4.49.14-45.64,0-91.28-.06-136.92.1-4.9.02-8.73-1.12-11.59-5.11v-6c2.84-4.03,6.66-5.43,11.59-5.1,5.39.36,10.83.08,16.16.08v-134.96c-4.6,1.91-8.86,4.27-13.43,5.41-4.61,1.15-9.53,1.08-14.32,1.55,0-5.33,0-10.67,0-16,18.39-.11,26.81-8,28.05-26.3,1.08-15.93,14.49-29.02,30.44-29.68,1.83-.08,3.66-.04,5.5-.04,91.47,0,182.94,0,274.42-.02,13.42,0,23.17-7.83,25.27-20.19.41-2.41.37-4.9.55-7.56h15.62c.98,17.28-6.32,30.03-20.57,39.05,9.19,15.28,18.31,30.37,27.34,45.51,5.68,9.52,4.2,16.19-4.87,22.72-6.62,4.77-13.23,9.55-19.93,14.21-4.92,3.43-8.2,3.16-12.42-1.01-2.96-2.92-5.72-6.05-8.86-9.39-1.51,1.32-2.65,2.2-3.66,3.21-14.03,14.01-27.97,28.11-42.1,42.02-7.3,7.19-10.9,15.67-10.8,25.92.15,14.97.04,29.94.04,45.23h167.85v-53.79h15.95v54.11h12.61c6.66,0,13.34.27,19.99-.09,4.92-.26,8.75,1.07,11.59,5.11v6ZM415.3,240.19c-8.23-13.72-16.22-26.78-23.93-40.01-4.03-6.91-9.66-9.85-17.65-9.84-89.8.11-179.61.07-269.41.08-12.23,0-18.29,6.15-18.29,18.52,0,53.32,0,106.65,0,159.97,0,1.75,0,3.51,0,5.23h24.07v-71.37h15.93v31.23c12.46.44,22.74-9.09,23.9-21.75.71-7.74,2.97-9.86,10.68-9.86,38.32-.01,76.64-.01,114.96,0,7.79,0,10.44,2.68,10.45,10.54.02,18.66,0,37.33,0,55.99v5.2h23.97c0-1.89,0-3.52,0-5.15,0-13.83-.02-27.66,0-41.49.03-13.09,4.41-24.55,13.57-33.88,15.52-15.81,31.22-31.46,46.98-47.03,6.64-6.55,16.05-6.47,22.87-.01,1.78,1.68,2.96,3.99,4.47,6.07,6.6-4.72,11.84-8.47,17.42-12.45Z"/>
      <path d="M554,206.4c-.64,1.85-1.31,3.68-1.9,5.54-4.89,15.38-18.39,26.62-34.44,27.61-10.43.64-20.97.71-31.38,0-20.02-1.38-35.72-18.36-36.23-38.44-.17-6.79-.03-13.59-.03-20.3,19.16-4.82,36.53.07,52.18,14.75,6.43-7.71,14.38-13.67,24.46-14.78,9.02-.99,18.22-.32,27.34-.38v26ZM466.39,196.41c-1.68,17.02,12.26,30.46,27.35,26.77,1.23-16.92-10.63-28.67-27.35-26.77ZM510.39,223.56c17.19,1.6,30.7-12.32,26.84-27.26-16.79-1.44-28.61,10.43-26.84,27.26Z"/>
      <path d="M554,138.39c-.43,1.22-.95,2.42-1.29,3.66-4.63,16.68-18.32,28.45-35.56,29.52-10.42.64-20.96.65-31.38-.1-18.9-1.37-34.38-17.4-35.6-36.4-.48-7.43-.08-14.92-.08-22.31,19.26-4.76,36.44.08,52.23,14.89,13.39-17.8,32.55-16.49,51.69-15.26v26ZM537.49,128.3c-17.27-1.43-30.58,12.35-26.71,27.31,16.61,1.55,28.89-10.84,26.71-27.31ZM493.52,155.37c2.33-16.27-11.02-29.54-26.99-26.83-2.54,16.05,11.01,29.51,26.99,26.83Z"/>
      <path d="M554,274.41c-.59,1.69-1.24,3.36-1.77,5.07-4.82,15.7-18.28,27.04-34.59,28.06-10.42.65-20.96.71-31.38-.01-20.04-1.4-35.73-18.36-36.22-38.44-.17-6.79-.03-13.59-.03-20.8,19.24-.92,38.2-2.47,51.93,15.77,13.77-18.14,32.91-16.91,52.05-15.66v26ZM493.71,291.69c1.09-7.98-1.07-14.96-6.76-20.68-5.71-5.75-12.68-7.89-20.68-6.58-1.09,17.2,10,28.26,27.44,27.26ZM537.51,264.32c-17.22-1.5-30.48,12.19-26.76,27.3,16.61,1.55,28.84-10.76,26.76-27.3Z"/>
      <path class="cls-1" d="M42,246.4c4.78-.47,9.7-.4,14.32-1.55,4.57-1.14,8.83-3.5,13.43-5.41v134.96c-5.34,0-10.77.28-16.16-.08-4.92-.33-8.75,1.07-11.59,5.1,0-44.34,0-88.68,0-133.02Z"/>
      <path d="M502.78,115.19c-6.4-6.18-12.31-11.13-17.32-16.87-12.61-14.48-12.46-36.96.29-51.32,4.95-5.58,10.68-10.48,16.09-15.71,18.85,14.95,32.07,30.74,23.2,55.53-1.84,5.15-5.48,9.83-8.97,14.18-4.03,5.03-8.81,9.46-13.29,14.19ZM501.99,92.22c13.27-11.35,13.18-28.35.05-38.58-13.16,10.04-13.29,26.99-.05,38.58Z"/>
      <path d="M229.97,382.33c.05,4.27-3.5,7.96-7.77,8.07-4.28.12-8-3.36-8.18-7.65-.19-4.5,3.5-8.33,8.01-8.3,4.31.02,7.89,3.58,7.94,7.89Z"/>
    </g>
    
  </g>
</svg>